<?xml version="1.0" encoding="UTF-8" standalone="no"?>
<!DOCTYPE svg PUBLIC "-//W3C//DTD SVG 1.1//EN" "http://www.w3.org/Graphics/SVG/1.1/DTD/svg11.dtd">
<svg xmlns="http://www.w3.org/2000/svg" version="1.1" viewBox="290 285 442 455" width="64" height="64">
  <path fill="#bbbbba" d="
  M 342.79 285.58
  Q 342.35 285.75 341.78 285.66
  L 342.79 285.58
  Z"
/>
  <path fill="#ececeb" d="
  M 408.54 285.64
  L 409.21 285.67
  L 612.39 286.04
  L 616.95 286.70
  L 618.79 287.05
  L 619.96 287.17
  Q 620.13 287.24 620.29 287.31
  L 621.22 287.43
  L 635.21 290.40
  Q 635.69 290.68 636.45 290.69
  L 641.79 292.29
  L 642.44 292.51
  Q 642.89 293.01 643.51 292.95
  L 647.71 294.32
  Q 648.06 294.72 648.80 294.69
  Q 678.44 306.74 697.80 331.19
  Q 712.32 349.53 718.59 372.93
  C 719.86 377.67 720.64 383.09 721.56 388.22
  L 721.68 388.97
  L 721.85 390.22
  L 721.89 391.04
  L 721.90 413.79
  L 721.88 414.73
  C 720.79 420.58 719.80 426.98 718.24 432.24
  Q 714.27 445.75 707.91 456.71
  Q 695.69 477.81 675.79 493.26
  Q 671.50 496.59 665.55 500.86
  L 452.72 653.10
  L 335.56 737.64
  A 2.01 1.94 -65.2 0 1 334.66 737.99
  L 330.27 738.49
  L 325.97 737.77
  Q 324.94 737.20 323.74 737.22
  L 314.48 733.49
  Q 314.22 733.20 313.79 732.99
  Q 300.13 724.87 295.05 709.62
  Q 294.92 708.71 294.51 708.24
  Q 294.51 707.80 294.27 707.47
  L 293.94 706.21
  Q 293.93 705.85 293.82 705.52
  L 293.70 705.04
  Q 293.71 704.60 293.54 704.24
  Q 293.50 704.13 293.47 704.03
  Q 293.48 703.58 293.29 703.21
  Q 293.25 703.08 293.21 702.96
  Q 293.27 702.40 293.04 701.96
  Q 293.07 701.53 292.88 701.29
  C 292.79 697.97 292.38 694.60 292.37 691.45
  Q 292.28 510.27 292.36 329.10
  C 292.36 326.03 292.77 322.93 292.96 319.79
  L 294.74 312.97
  Q 295.11 312.81 295.25 312.04
  L 296.24 309.97
  Q 297.05 309.17 297.41 308.02
  L 300.51 303.23
  Q 300.83 302.95 301.04 302.55
  L 304.37 298.71
  Q 304.62 298.62 304.81 298.33
  L 309.04 294.72
  L 309.80 294.36
  Q 317.15 289.51 325.52 287.20
  Q 325.91 287.19 326.22 287.05
  Q 326.35 287.01 326.49 286.96
  Q 327.02 287.00 327.26 286.72
  L 331.91 286.01
  L 335.45 285.89
  Q 336.62 286.26 337.31 285.85
  L 341.78 285.66
  Q 342.35 285.75 342.79 285.58
  L 408.54 285.64
  Z"
/>
  <path fill="#878787" d="
  M 409.21 285.67
  L 408.54 285.64
  Q 408.89 285.59 409.21 285.67
  Z"
/>
  <path fill="#bbbbba" d="
  M 337.31 285.85
  Q 336.62 286.26 335.45 285.89
  L 337.31 285.85
  Z"
/>
  <path fill="#878787" d="
  M 331.91 286.01
  L 327.26 286.72
  L 331.91 286.01
  Z"
/>
  <path fill="#878787" d="
  M 616.95 286.70
  L 612.39 286.04
  L 616.95 286.70
  Z"
/>
  <path fill="#878787" d="
  M 327.26 286.72
  Q 327.02 287.00 326.49 286.96
  L 327.26 286.72
  Z"
/>
  <path fill="#878787" d="
  M 326.22 287.05
  Q 325.91 287.19 325.52 287.20
  L 326.22 287.05
  Z"
/>
  <path fill="#878787" d="
  M 619.96 287.17
  L 618.79 287.05
  L 619.96 287.17
  Z"
/>
  <path fill="#878787" d="
  M 621.22 287.43
  L 620.29 287.31
  L 621.22 287.43
  Z"
/>
  <path fill="#878787" d="
  M 636.45 290.69
  Q 635.69 290.68 635.21 290.40
  Q 635.80 290.35 636.45 290.69
  Z"
/>
  <path fill="#878787" d="
  M 642.44 292.51
  L 641.79 292.29
  Q 642.16 292.35 642.44 292.51
  Z"
/>
  <path fill="#878787" d="
  M 643.51 292.95
  Q 642.89 293.01 642.44 292.51
  Q 643.02 292.64 643.51 292.95
  Z"
/>
  <path fill="#878787" d="
  M 309.80 294.36
  L 309.04 294.72
  Q 309.37 294.29 309.80 294.36
  Z"
/>
  <path fill="#878787" d="
  M 648.80 294.69
  Q 648.06 294.72 647.71 294.32
  Q 648.26 294.39 648.80 294.69
  Z"
/>
  <path fill="#878787" d="
  M 304.81 298.33
  Q 304.62 298.62 304.37 298.71
  Q 304.52 298.43 304.81 298.33
  Z"
/>
  <path fill="#878787" d="
  M 301.04 302.55
  Q 300.83 302.95 300.51 303.23
  Q 300.64 302.78 301.04 302.55
  Z"
/>
  <path fill="#878787" d="
  M 297.41 308.02
  Q 297.05 309.17 296.24 309.97
  Q 296.55 308.86 297.41 308.02
  Z"
/>
  <path fill="#878787" d="
  M 295.25 312.04
  Q 295.11 312.81 294.74 312.97
  Q 294.92 312.44 295.25 312.04
  Z"
/>
  <path fill="#878787" d="
  M 292.96 319.79
  C 292.77 322.93 292.36 326.03 292.36 329.10
  Q 292.28 510.27 292.37 691.45
  C 292.38 694.60 292.79 697.97 292.88 701.29
  Q 292.01 695.90 292.01 686.75
  Q 292.08 514.63 291.96 342.50
  Q 291.95 334.01 292.15 325.51
  Q 292.22 322.60 292.96 319.79
  Z"
/>
  <path fill="#878787" d="
  M 721.68 388.97
  L 721.56 388.22
  Q 721.71 388.56 721.68 388.97
  Z"
/>
  <path fill="#878787" d="
  M 721.89 391.04
  L 721.85 390.22
  L 721.89 391.04
  Z"
/>
  <path fill="#878787" d="
  M 721.90 413.79
  L 721.88 414.73
  L 721.90 413.79
  Z"
/>
  <path fill="#bbbbba" d="
  M 539.15 433.22
  Q 539.58 434.04 539.57 435.26
  Q 539.25 483.50 539.40 509.81
  A 2.60 2.59 -17.3 0 1 538.25 511.98
  Q 519.58 524.61 504.73 535.48
  C 472.86 558.80 418.28 597.26 373.68 629.11
  A 0.54 0.54 0.0 0 1 372.91 628.95
  Q 372.70 628.60 372.70 628.25
  Q 372.62 620.94 372.72 555.25
  Q 372.72 553.19 373.37 551.86
  A 0.96 0.92 85.9 0 1 373.70 551.46
  L 538.68 433.10
  A 0.32 0.32 0.0 0 1 539.15 433.22
  Z"
/>
  <path fill="#878787" d="
  M 665.55 500.86
  Q 676.00 506.61 683.87 512.88
  Q 700.79 526.34 713.70 545.98
  Q 708.66 550.40 703.00 554.23
  C 688.54 563.99 674.11 574.48 658.04 586.05
  Q 554.52 660.52 466.30 725.05
  Q 460.31 729.44 454.51 733.24
  A 0.67 0.67 0.0 0 1 453.47 732.69
  L 452.72 653.10
  L 665.55 500.86
  Z"
/>
  <path fill="#bbbbba" d="
  M 335.81 738.88
  Q 334.06 738.44 331.96 738.83
  Q 331.06 738.81 330.27 738.49
  L 334.66 737.99
  A 2.01 1.94 -65.2 0 0 335.56 737.64
  L 452.72 653.10
  L 453.47 732.69
  A 0.67 0.67 0.0 0 0 454.51 733.24
  Q 460.31 729.44 466.30 725.05
  Q 554.52 660.52 658.04 586.05
  C 674.11 574.48 688.54 563.99 703.00 554.23
  Q 708.66 550.40 713.70 545.98
  Q 719.46 555.69 723.27 565.47
  Q 726.70 574.27 729.19 585.77
  C 730.22 590.49 730.67 596.20 731.40 601.82
  C 732.20 608.01 732.03 615.50 731.07 622.00
  Q 730.49 625.93 730.07 629.85
  Q 729.71 633.16 728.65 637.65
  Q 718.63 679.99 684.64 708.66
  Q 665.67 724.67 643.22 732.31
  Q 638.88 733.78 633.76 735.09
  C 630.49 735.92 624.96 737.33 620.93 737.85
  Q 611.18 739.10 598.75 739.10
  Q 468.12 739.09 352.50 739.10
  Q 341.18 739.10 335.81 738.88
  Z"
/>
  <path fill="#878787" d="
  M 293.21 702.96
  Q 293.03 702.50 293.04 701.96
  Q 293.27 702.40 293.21 702.96
  Z"
/>
  <path fill="#878787" d="
  M 293.47 704.03
  Q 293.28 703.66 293.29 703.21
  Q 293.48 703.58 293.47 704.03
  Z"
/>
  <path fill="#878787" d="
  M 293.70 705.04
  Q 293.50 704.68 293.54 704.24
  Q 293.71 704.60 293.70 705.04
  Z"
/>
  <path fill="#878787" d="
  M 293.94 706.21
  L 293.82 705.52
  Q 293.93 705.85 293.94 706.21
  Z"
/>
  <path fill="#878787" d="
  M 294.51 708.24
  Q 294.23 708.00 294.27 707.47
  Q 294.51 707.80 294.51 708.24
  Z"
/>
  <path fill="#878787" d="
  M 295.05 709.62
  Q 294.43 709.20 294.51 708.24
  Q 294.92 708.71 295.05 709.62
  Z"
/>
  <path fill="#878787" d="
  M 314.48 733.49
  Q 313.99 733.35 313.79 732.99
  Q 314.22 733.20 314.48 733.49
  Z"
/>
  <path fill="#878787" d="
  M 325.97 737.77
  Q 324.57 737.91 323.74 737.22
  Q 324.94 737.20 325.97 737.77
  Z"
/>
  <path fill="#878787" d="
  M 335.81 738.88
  Q 333.89 739.28 331.96 738.83
  Q 334.06 738.44 335.81 738.88
  Z"
/>
</svg>